<?xml version="1.0" encoding="UTF-8"?>
<svg width="138px" height="119px" viewBox="0 0 138 119" version="1.1" xmlns="http://www.w3.org/2000/svg" xmlns:xlink="http://www.w3.org/1999/xlink">
    <!-- Generator: Sketch 49 (51002) - http://www.bohemiancoding.com/sketch -->
    <title>Group 11</title>
    <desc>Created with Sketch.</desc>
    <defs></defs>
    <g id="Home-Page" stroke="none" stroke-width="1" fill="none" fill-rule="evenodd">
        <g id="Landing-Page-Copy-3" transform="translate(-822.000000, -1207.000000)">
            <g id="Group-11" transform="translate(824.000000, 1209.000000)">
                <g id="HouseLocal">
                    <g id="Group-5" transform="translate(90.000000, 0.000000)">
                        <circle id="Oval-9" fill="#524F4C" cx="11.5" cy="11.5" r="3.5"></circle>
                        <path d="M11.7287969,33.9218469 C19.5479949,25.7906634 23.4575939,18.3929801 23.4575939,11.7287969 C23.4575939,5.25116125 18.2064326,0 11.7287969,0 C5.25116125,0 2.74284551e-16,5.25116125 0,11.7287969 C0,18.3929801 3.90959898,25.7906634 11.7287969,33.9218469 Z" id="Oval-12-Copy-3" stroke="#524F4C" stroke-width="4" transform="translate(11.728797, 16.960923) rotate(-360.000000) translate(-11.728797, -16.960923) "></path>
                    </g>
                    <g id="Group-5" transform="translate(110.000000, 80.000000)">
                        <circle id="Oval-9" fill="#524F4C" cx="11.5" cy="11.5" r="3.5"></circle>
                        <path d="M11.7287969,33.9218469 C19.5479949,25.7906634 23.4575939,18.3929801 23.4575939,11.7287969 C23.4575939,5.25116125 18.2064326,0 11.7287969,0 C5.25116125,0 2.74284551e-16,5.25116125 0,11.7287969 C0,18.3929801 3.90959898,25.7906634 11.7287969,33.9218469 Z" id="Oval-12-Copy-3" stroke="#524F4C" stroke-width="4" transform="translate(11.728797, 16.960923) rotate(-360.000000) translate(-11.728797, -16.960923) "></path>
                    </g>
                    <g id="Group-5" transform="translate(0.000000, 20.000000)">
                        <circle id="Oval-9" fill="#524F4C" cx="11.5" cy="11.5" r="3.5"></circle>
                        <path d="M11.7287969,33.9218469 C19.5479949,25.7906634 23.4575939,18.3929801 23.4575939,11.7287969 C23.4575939,5.25116125 18.2064326,0 11.7287969,0 C5.25116125,0 2.74284551e-16,5.25116125 0,11.7287969 C0,18.3929801 3.90959898,25.7906634 11.7287969,33.9218469 Z" id="Oval-12-Copy-3" stroke="#524F4C" stroke-width="4" transform="translate(11.728797, 16.960923) rotate(-360.000000) translate(-11.728797, -16.960923) "></path>
                    </g>
                    <g id="Group-9" transform="translate(27.000000, 32.000000)" stroke="#524F4C" stroke-width="4">
                        <path d="M11.2726451,30 L15.5014429,63 L57.4985571,63 L61.7273549,30 L11.2726451,30 Z" id="Rectangle-2"></path>
                        <path d="M36.5,0 C44.0968544,0 56.263521,10 73,30 L0,30 C16.736479,10 28.9031456,3.82334111e-16 36.5,0 Z" id="Triangle"></path>
                    </g>
                </g>
            </g>
        </g>
    </g>
</svg>