<?xml version="1.0" encoding="UTF-8"?>
<svg width="121px" height="97px" viewBox="0 0 121 97" version="1.1" xmlns="http://www.w3.org/2000/svg" xmlns:xlink="http://www.w3.org/1999/xlink">
    <!-- Generator: Sketch 49 (51002) - http://www.bohemiancoding.com/sketch -->
    <title>Watermelon</title>
    <desc>Created with Sketch.</desc>
    <defs></defs>
    <g id="Home-Page" stroke="none" stroke-width="1" fill="none" fill-rule="evenodd">
        <g id="Landing-Page-Copy-3" transform="translate(-498.000000, -1217.000000)" stroke="#524F4C" stroke-width="4">
            <g id="Watermelon" transform="translate(500.000000, 1220.000000)">
                <path d="M5.1593686,36.9218469 C8.59894767,33.3450288 10.3187372,30.0908694 10.3187372,27.1593686 C10.3187372,24.309928 8.0088092,22 5.1593686,22 C2.30992801,22 1.20654754e-16,24.309928 0,27.1593686 C0,30.0908694 1.71978953,33.3450288 5.1593686,36.9218469 Z" id="Oval-12" transform="translate(5.159369, 29.460923) rotate(-180.000000) translate(-5.159369, -29.460923) "></path>
                <path d="M85.1593686,14.9218469 C88.5989477,11.3450288 90.3187372,8.09086939 90.3187372,5.1593686 C90.3187372,2.30992801 88.0088092,0 85.1593686,0 C82.309928,0 80,2.30992801 80,5.1593686 C80,8.09086939 81.7197895,11.3450288 85.1593686,14.9218469 Z" id="Oval-12-Copy" transform="translate(85.159369, 7.460923) rotate(-180.000000) translate(-85.159369, -7.460923) "></path>
                <path d="M111.159369,77.9218469 C114.598948,74.3450288 116.318737,71.0908694 116.318737,68.1593686 C116.318737,65.309928 114.008809,63 111.159369,63 C108.309928,63 106,65.309928 106,68.1593686 C106,71.0908694 107.71979,74.3450288 111.159369,77.9218469 Z" id="Oval-12-Copy-2" transform="translate(111.159369, 70.460923) rotate(-180.000000) translate(-111.159369, -70.460923) "></path>
                <g id="Group-7" transform="translate(2.000000, 17.000000)">
                    <path d="M83.5479428,82.383467 L69.6604748,14.8169024 C56.6690812,14.8169024 44.4790371,18.9399427 34.8099117,26.1078878 C21.4602449,36.0043027 12.9159313,51.7048884 13.7025,70.3722286 L83.5479428,82.383467 Z" id="Oval-13" transform="translate(48.600185, 48.600185) rotate(-135.000000) translate(-48.600185, -48.600185) "></path>
                    <path d="M17,49.0445425 C26.1631621,58.017145 36.9509991,62.5034462 49.3635112,62.5034462 C61.967154,62.5034462 72.7445885,57.6689641 81.6958146,48" id="Path-9"></path>
                </g>
            </g>
        </g>
    </g>
</svg>